<?xml version="1.0" standalone="no"?>
<!DOCTYPE svg PUBLIC "-//W3C//DTD SVG 20010904//EN"
 "http://www.w3.org/TR/2001/REC-SVG-20010904/DTD/svg10.dtd">
<svg version="1.0" xmlns="http://www.w3.org/2000/svg"
 width="482.000000pt" height="73.000000pt" viewBox="0 0 482.000000 73.000000"
 preserveAspectRatio="xMidYMid meet">

<g transform="translate(0.000000,73.000000) scale(0.100000,-0.100000)"
fill="#000000" stroke="none">
<path d="M354 705 c-146 -32 -254 -119 -254 -205 0 -72 45 -101 173 -108 48
-3 85 -8 80 -12 -4 -4 -37 -14 -71 -24 -163 -43 -272 -138 -272 -237 0 -23 9
-40 35 -65 44 -41 101 -51 201 -36 148 23 254 77 285 146 19 42 25 96 11 96
-4 0 -32 -18 -62 -41 -71 -54 -116 -76 -192 -95 -143 -37 -215 18 -132 102 45
44 157 99 233 114 31 6 68 16 82 21 28 11 56 57 42 70 -4 4 -71 9 -148 11
-154 4 -193 15 -175 48 24 45 181 110 266 110 24 0 44 -2 44 -5 0 -3 -12 -17
-27 -30 -40 -35 -14 -31 67 10 l70 35 0 49 c0 35 -4 51 -16 55 -27 10 -176 5
-240 -9z"/>
<path d="M1985 680 c-63 -13 -153 -47 -202 -75 -50 -30 -76 -77 -71 -129 4
-42 30 -44 104 -11 55 24 56 26 21 21 -52 -7 -39 7 35 37 85 33 133 44 122 26
-5 -8 -39 -60 -77 -116 -126 -191 -179 -320 -147 -358 28 -33 193 -6 308 51
92 45 192 137 227 209 67 136 32 271 -85 331 -40 20 -170 28 -235 14z m212
-129 c169 -77 28 -320 -224 -386 -157 -41 -158 -15 -11 229 43 70 78 139 78
152 0 23 3 24 58 24 34 0 74 -8 99 -19z"/>
<path d="M1485 647 c-81 -43 -192 -156 -235 -236 -26 -51 -34 -80 -38 -137 -5
-85 8 -130 49 -170 27 -26 37 -29 92 -28 78 0 132 27 202 98 60 62 109 150
131 236 27 108 2 160 -80 160 -50 0 -41 10 24 24 l51 12 -23 34 c-34 50 -90
52 -173 7z m126 -139 c16 -29 -2 -107 -40 -173 -57 -99 -182 -215 -233 -215
-29 0 -51 45 -44 90 10 64 56 160 77 160 10 0 32 20 50 45 29 40 69 74 124
104 31 16 53 13 66 -11z"/>
<path d="M2675 647 c-81 -43 -192 -156 -235 -236 -26 -51 -34 -80 -38 -137 -5
-85 8 -130 49 -170 27 -26 37 -29 92 -28 78 0 132 27 202 98 60 62 109 150
131 236 27 108 2 160 -80 160 -50 0 -41 10 24 24 l51 12 -23 34 c-34 50 -90
52 -173 7z m126 -139 c16 -29 -2 -107 -40 -173 -57 -99 -182 -215 -233 -215
-29 0 -51 45 -44 90 10 64 56 160 77 160 10 0 32 20 50 45 29 40 69 74 124
104 31 16 53 13 66 -11z"/>
<path d="M4239 628 c-74 -54 -99 -81 -86 -95 7 -6 21 -3 80 22 13 5 7 -11 -22
-62 -66 -117 -121 -264 -121 -325 0 -37 43 -78 82 -78 27 0 29 2 23 33 -8 42
24 140 105 321 59 132 70 179 50 217 -16 29 -31 24 -111 -33z"/>
<path d="M859 651 c-79 -25 -155 -69 -194 -112 -33 -37 -65 -113 -52 -125 3
-4 39 2 79 12 68 17 71 19 38 24 l-35 5 35 26 c41 31 87 55 141 74 l39 14 0
-102 0 -102 -81 -93 c-44 -50 -84 -92 -89 -92 -16 0 -80 -62 -96 -91 -21 -42
-18 -69 9 -69 38 0 89 44 167 144 41 52 78 96 82 96 3 0 5 -50 5 -110 -2 -120
2 -130 54 -130 32 0 112 52 144 95 14 17 25 35 25 38 0 14 -33 6 -75 -18 -29
-18 -45 -22 -50 -15 -4 6 -4 68 0 138 l7 127 62 71 c33 40 68 74 77 77 21 6
45 42 54 80 6 24 4 27 -16 27 -17 1 -45 -22 -97 -77 l-73 -78 6 78 c4 54 2 83
-6 93 -16 19 -91 17 -160 -5z"/>
<path d="M3510 663 c-58 -10 -149 -45 -168 -66 -21 -23 -52 -104 -52 -138 0
-28 17 -31 89 -16 77 15 88 32 29 41 -41 7 -42 8 -23 23 41 32 127 65 173 66
40 2 47 -1 50 -18 4 -31 -50 -79 -165 -146 -112 -66 -195 -135 -220 -182 -20
-40 -12 -106 17 -129 27 -22 107 -24 196 -5 91 19 133 53 149 120 6 24 4 27
-17 27 -14 0 -44 -7 -69 -15 -71 -24 -219 -54 -219 -44 0 4 81 62 179 129 160
107 182 125 202 166 20 42 21 52 11 106 -6 33 -16 66 -23 74 -11 14 -79 17
-139 7z"/>
<path d="M3891 633 c-71 -37 -170 -144 -212 -229 -64 -130 -48 -268 35 -308
49 -23 84 -20 141 13 108 62 199 191 231 328 20 86 13 143 -23 188 -25 31 -34
35 -73 35 -30 0 -64 -9 -99 -27z m134 -124 c0 -79 -42 -157 -129 -245 -81 -81
-138 -113 -163 -93 -23 20 -12 97 26 174 40 80 151 201 176 191 10 -3 27 2 43
14 37 29 47 20 47 -41z"/>
<path d="M4675 622 c-162 -87 -267 -176 -318 -270 -25 -46 -27 -55 -17 -92 14
-51 37 -62 113 -58 l62 3 0 -70 c0 -81 14 -92 69 -54 30 21 34 27 33 70 -1 59
12 75 67 83 37 6 46 12 65 46 29 51 21 64 -36 55 l-44 -6 16 31 c9 17 36 62
60 100 52 79 68 117 58 133 -5 7 -8 23 -8 37 0 38 -39 36 -120 -8z m11 -114
c-36 -46 -79 -108 -96 -139 -32 -60 -49 -69 -138 -69 l-33 0 22 39 c32 57 112
132 214 200 49 33 91 58 94 56 2 -2 -26 -41 -63 -87z"/>
</g>
</svg>
